<svg width="80" height="80" viewBox="0 0 80 80" fill="none" xmlns="http://www.w3.org/2000/svg">
<g clip-path="url(#clip0_266_574)">
<mask id="mask0_266_574" style="mask-type:luminance" maskUnits="userSpaceOnUse" x="0" y="0" width="80" height="80">
<path d="M80 40C80 17.9086 62.0914 0 40 0C17.9086 0 0 17.9086 0 40C0 62.0914 17.9086 80 40 80C62.0914 80 80 62.0914 80 40Z" fill="white"/>
</mask>
<g mask="url(#mask0_266_574)">
<path d="M80 0H0V80H80V0Z" fill="#0AE47C"/>
<path d="M36.615 95.4649C60.5463 99.6847 83.3673 83.7053 87.587 59.7739C91.8068 35.8426 75.8273 13.0216 51.896 8.80186C27.9646 4.58212 5.14368 20.5615 0.923939 44.4929C-3.2958 68.4242 12.6836 91.2452 36.615 95.4649Z" fill="#FD960B"/>
<path d="M20 53.333C20 55.5431 21.1706 57.6628 23.2544 59.2256C25.3381 60.7884 28.1643 61.6663 31.1111 61.6663C34.058 61.6663 36.8841 60.7884 38.9679 59.2256C41.0516 57.6628 42.2222 55.5431 42.2222 53.333" fill="black"/>
<path d="M25.5555 42.2222C25.5555 40.9949 24.8093 40 23.8888 40C22.9684 40 22.2222 40.9949 22.2222 42.2222C22.2222 43.4495 22.9684 44.4444 23.8888 44.4444C24.8093 44.4444 25.5555 43.4495 25.5555 42.2222Z" fill="black"/>
<path d="M38.889 42.2222C38.889 40.9949 38.1428 40 37.2223 40C36.3019 40 35.5557 40.9949 35.5557 42.2222C35.5557 43.4495 36.3019 44.4444 37.2223 44.4444C38.1428 44.4444 38.889 43.4495 38.889 42.2222Z" fill="black"/>
</g>
</g>
<defs>
<clipPath id="clip0_266_574">
<rect width="80" height="80" fill="white"/>
</clipPath>
</defs>
</svg>
