<svg width="86" height="131" viewBox="0 0 86 131" fill="none" xmlns="http://www.w3.org/2000/svg">
<mask id="mask0_299_2731" style="mask-type:luminance" maskUnits="userSpaceOnUse" x="0" y="0" width="86" height="87">
<path d="M85.0649 0H0V86.3698H85.0649V0Z" fill="white"/>
</mask>
<g mask="url(#mask0_299_2731)">
<path d="M46.873 14.7921L50.154 11.5111C56.597 5.06815 67.0862 4.90867 73.5663 11.3145C76.0217 13.7472 77.6535 16.888 78.2323 20.2956C78.8112 23.7033 78.3079 27.2066 76.7933 30.3136C76.0668 31.7978 75.8221 33.4717 76.093 35.1018C76.3642 36.7318 77.1376 38.2364 78.3053 39.4056C80.4527 37.2533 82.1546 34.699 83.3143 31.8887C84.4741 29.0784 85.0689 26.0671 85.0647 23.0269C85.0601 19.9867 84.4572 16.9772 83.2894 14.1702C82.1217 11.3631 80.4122 8.8137 78.2589 6.6675C69.1977 -2.34263 54.4897 -2.16333 45.4538 6.87211L14.1805 38.1445L11.6096 35.5736C5.05731 29.0213 5.01555 18.311 11.6834 11.8752C14.1515 9.50031 17.296 7.94998 20.6828 7.43824C24.0696 6.92649 27.5316 7.47857 30.5913 9.01823C31.9878 9.73387 33.5748 9.98986 35.1255 9.74969C36.6762 9.50951 38.1114 8.78543 39.226 7.68086L39.3057 7.60155C39.3305 7.57691 39.3502 7.54759 39.3636 7.51527C39.377 7.483 39.384 7.44836 39.384 7.41339C39.384 7.37841 39.377 7.34378 39.3636 7.3115C39.3502 7.27923 39.3305 7.24991 39.3057 7.22523C35.0014 3.02903 29.2333 0.672041 23.2221 0.652985C17.2108 0.633933 11.4279 2.95431 7.09711 7.12313C-2.23197 16.1291 -2.19864 31.105 6.97055 40.2742L38.2345 71.5382L34.9135 74.8593C28.4705 81.3022 17.9808 81.4617 11.5011 75.0558C9.04574 72.6233 7.41403 69.4824 6.83517 66.0748C6.25634 62.6673 6.7594 59.164 8.27374 56.0568C9.00027 54.5726 9.24513 52.8986 8.97415 51.2689C8.70313 49.6387 7.92978 48.1339 6.76214 46.9648C4.61489 49.1173 2.91274 51.6714 1.75294 54.4815C0.593131 57.2921 -0.00160079 60.3031 0.0027088 63.3436C0.00701841 66.3836 0.610285 69.3933 1.77806 72.2001C2.94583 75.0073 4.65522 77.5568 6.80855 79.7029C15.8693 88.7134 30.5778 88.5346 39.6137 79.4987L70.9275 48.1845L73.5081 50.7651C79.9511 57.2081 80.1105 67.6974 73.7047 74.1771C71.2721 76.6329 68.1312 78.2643 64.7237 78.8435C61.3161 79.4223 57.8128 78.919 54.7057 77.4045C53.2211 76.6776 51.5462 76.4324 49.9156 76.7041C48.285 76.9754 46.7798 77.7496 45.6107 78.9182C47.7632 81.0656 50.3172 82.7679 53.1274 83.9276C55.938 85.0874 58.9489 85.6822 61.9895 85.678C65.0295 85.6734 68.0392 85.0701 70.846 83.9023C73.6532 82.7345 76.2027 81.0251 78.3488 78.8718C87.3593 69.811 87.18 55.1025 78.1446 46.0671L46.873 14.7921ZM42.9031 66.8675L18.8503 42.8148L42.2028 19.4628L66.2555 43.5155L42.9031 66.8675Z" fill="#0AE47C"/>
</g>
<path d="M4.34418 92.3108V110.181H0.364182V92.3108H4.34418ZM11.0035 99.1741V102.153H4.13607V99.1741H11.0035ZM14.6974 92.3108V110.181H10.7174V92.3108H14.6974Z" fill="url(#paint0_linear_299_2731)"/>
<path d="M33.4378 92.3108C33.7673 92.3108 34.0535 92.4058 34.2963 92.5957C34.5564 92.7856 34.7298 93.036 34.8165 93.3468L40.0191 110.181H35.9611L32.2933 97.0504C32.2239 96.7569 32.1545 96.4633 32.0851 96.1698C32.0158 95.859 31.9551 95.5655 31.9031 95.2892H31.2007C31.1487 95.5655 31.088 95.859 31.0186 96.1698C30.9666 96.4633 30.8972 96.7569 30.8105 97.0504L27.1427 110.181H23.0586L28.2872 93.3468C28.374 93.036 28.5387 92.7856 28.7815 92.5957C29.0416 92.4058 29.3364 92.3108 29.6659 92.3108H33.4378ZM36.1952 102.489V105.468H26.8825V102.489H36.1952Z" fill="url(#paint1_linear_299_2731)"/>
<path d="M54.9231 92C55.7728 92 56.4925 92.0259 57.0821 92.0777C57.6891 92.1122 58.2441 92.1727 58.747 92.259C59.2499 92.3453 59.7702 92.4662 60.3078 92.6216L59.9956 95.5223C59.4233 95.4878 58.8944 95.4619 58.4088 95.4446C57.9406 95.4274 57.429 95.4187 56.874 95.4187C56.3364 95.4015 55.6861 95.3928 54.9231 95.3928C54.0386 95.3928 53.3449 95.5655 52.842 95.9108C52.3564 96.2561 52.0096 96.8604 51.8015 97.7238C51.5934 98.5698 51.4893 99.7439 51.4893 101.246C51.4893 102.748 51.5934 103.931 51.8015 104.794C52.0096 105.64 52.3564 106.236 52.842 106.581C53.3449 106.927 54.0386 107.099 54.9231 107.099C56.1197 107.099 57.1255 107.082 57.9406 107.048C58.7556 107.013 59.5621 106.953 60.3598 106.866L60.698 109.767C59.8655 110.026 59.0158 110.207 58.1487 110.311C57.2816 110.432 56.2064 110.492 54.9231 110.492C53.0675 110.492 51.576 110.199 50.4488 109.612C49.3389 109.007 48.5325 108.032 48.0296 106.685C47.544 105.338 47.3012 103.525 47.3012 101.246C47.3012 98.9669 47.544 97.154 48.0296 95.8072C48.5325 94.4604 49.3389 93.4935 50.4488 92.9065C51.576 92.3022 53.0675 92 54.9231 92Z" fill="url(#paint2_linear_299_2731)"/>
<path d="M84.6879 92.3108L80.0055 99.5108C79.8147 99.8216 79.6066 100.089 79.3812 100.314C79.1557 100.538 78.9303 100.728 78.7048 100.883V100.961C78.9476 101.099 79.2078 101.307 79.4852 101.583C79.7627 101.859 79.9882 102.153 80.1616 102.463L85 110.181H80.5518L75.011 100.832L80.3957 92.3108H84.6879ZM74.4127 92.3108V97.3612C74.4127 97.9482 74.3693 98.5353 74.2826 99.1223C74.1959 99.6921 74.0572 100.253 73.8664 100.806C74.0052 101.341 74.1266 101.894 74.2306 102.463C74.352 103.016 74.4127 103.534 74.4127 104.017V110.181H70.4587V92.3108H74.4127ZM76.4417 99.5108V102.256H73.2161V99.5108H76.4417Z" fill="url(#paint3_linear_299_2731)"/>
<path d="M18.7294 112.819C19.6659 112.819 20.1514 113.302 20.1861 114.269L20.8625 130.689H17.1946L16.5963 115.875H16.1281L13.2406 127.011C13.0846 127.84 12.5643 128.255 11.6799 128.255H9.1826C8.29816 128.255 7.76056 127.84 7.56979 127.011L4.68235 115.875H4.24013L3.69385 130.689H0L0.676339 114.269C0.711023 113.302 1.20527 112.819 2.15908 112.819H5.87895C6.72871 112.819 7.24897 113.242 7.43973 114.088L9.75489 123.075C9.85894 123.489 9.94565 123.912 10.015 124.344C10.0844 124.758 10.1624 125.181 10.2491 125.613H10.5873C10.674 125.181 10.7521 124.758 10.8214 124.344C10.9081 123.912 10.9948 123.481 11.0816 123.049L13.3707 114.088C13.5441 113.242 14.0644 112.819 14.9315 112.819H18.7294Z" fill="url(#paint4_linear_299_2731)"/>
<path d="M32.7254 112.819C33.0549 112.819 33.3411 112.914 33.5838 113.104C33.844 113.293 34.0174 113.544 34.1041 113.855L39.3067 130.689H35.2487L31.5808 117.558C31.5115 117.265 31.4421 116.971 31.3727 116.678C31.3034 116.367 31.2427 116.073 31.1906 115.797H30.4883C30.4363 116.073 30.3756 116.367 30.3062 116.678C30.2542 116.971 30.1848 117.265 30.0981 117.558L26.4303 130.689H22.3462L27.5748 113.855C27.6615 113.544 27.8263 113.293 28.0691 113.104C28.3292 112.914 28.624 112.819 28.9535 112.819H32.7254ZM35.4828 122.997V125.976H26.1701V122.997H35.4828Z" fill="url(#paint5_linear_299_2731)"/>
<path d="M47.6492 112.819V130.689H43.6692V112.819H47.6492ZM53.0599 112.819V115.927H38.2845V112.819H53.0599Z" fill="url(#paint6_linear_299_2731)"/>
<path d="M62.0805 112.508C62.9303 112.508 63.65 112.534 64.2396 112.586C64.8466 112.62 65.4015 112.681 65.9044 112.767C66.4073 112.853 66.9276 112.974 67.4652 113.129L67.1531 116.03C66.5808 115.996 66.0518 115.97 65.5663 115.952C65.098 115.935 64.5864 115.927 64.0315 115.927C63.4939 115.909 62.8436 115.901 62.0805 115.901C61.1961 115.901 60.5024 116.073 59.9995 116.419C59.5139 116.764 59.1671 117.368 58.959 118.232C58.7508 119.078 58.6468 120.252 58.6468 121.754C58.6468 123.256 58.7508 124.439 58.959 125.302C59.1671 126.148 59.5139 126.744 59.9995 127.089C60.5024 127.435 61.1961 127.607 62.0805 127.607C63.2771 127.607 64.283 127.59 65.098 127.555C65.9131 127.521 66.7195 127.46 67.5172 127.374L67.8554 130.275C67.023 130.534 66.1732 130.715 65.3061 130.819C64.439 130.94 63.3638 131 62.0805 131C60.2249 131 58.7335 130.706 57.6063 130.119C56.4964 129.515 55.69 128.54 55.1871 127.193C54.7015 125.846 54.4587 124.033 54.4587 121.754C54.4587 119.475 54.7015 117.662 55.1871 116.315C55.69 114.968 56.4964 114.001 57.6063 113.414C58.7335 112.81 60.2249 112.508 62.0805 112.508Z" fill="url(#paint7_linear_299_2731)"/>
<path d="M74.3558 112.819V130.689H70.3758V112.819H74.3558ZM81.0152 119.682V122.66H74.1477V119.682H81.0152ZM84.709 112.819V130.689H80.729V112.819H84.709Z" fill="url(#paint8_linear_299_2731)"/>
<defs>
<linearGradient id="paint0_linear_299_2731" x1="3.73716" y1="92" x2="42.3219" y2="131.032" gradientUnits="userSpaceOnUse">
<stop stop-color="#0AE47C"/>
<stop offset="1" stop-color="#FD960B"/>
</linearGradient>
<linearGradient id="paint1_linear_299_2731" x1="3.73716" y1="92" x2="42.3219" y2="131.032" gradientUnits="userSpaceOnUse">
<stop stop-color="#0AE47C"/>
<stop offset="1" stop-color="#FD960B"/>
</linearGradient>
<linearGradient id="paint2_linear_299_2731" x1="3.73716" y1="92" x2="42.3219" y2="131.032" gradientUnits="userSpaceOnUse">
<stop stop-color="#0AE47C"/>
<stop offset="1" stop-color="#FD960B"/>
</linearGradient>
<linearGradient id="paint3_linear_299_2731" x1="3.73716" y1="92" x2="42.3219" y2="131.032" gradientUnits="userSpaceOnUse">
<stop stop-color="#0AE47C"/>
<stop offset="1" stop-color="#FD960B"/>
</linearGradient>
<linearGradient id="paint4_linear_299_2731" x1="3.73716" y1="92" x2="42.3219" y2="131.032" gradientUnits="userSpaceOnUse">
<stop stop-color="#0AE47C"/>
<stop offset="1" stop-color="#FD960B"/>
</linearGradient>
<linearGradient id="paint5_linear_299_2731" x1="3.73716" y1="92" x2="42.3219" y2="131.032" gradientUnits="userSpaceOnUse">
<stop stop-color="#0AE47C"/>
<stop offset="1" stop-color="#FD960B"/>
</linearGradient>
<linearGradient id="paint6_linear_299_2731" x1="3.73716" y1="92" x2="42.3219" y2="131.032" gradientUnits="userSpaceOnUse">
<stop stop-color="#0AE47C"/>
<stop offset="1" stop-color="#FD960B"/>
</linearGradient>
<linearGradient id="paint7_linear_299_2731" x1="3.73716" y1="92" x2="42.3219" y2="131.032" gradientUnits="userSpaceOnUse">
<stop stop-color="#0AE47C"/>
<stop offset="1" stop-color="#FD960B"/>
</linearGradient>
<linearGradient id="paint8_linear_299_2731" x1="3.73716" y1="92" x2="42.3219" y2="131.032" gradientUnits="userSpaceOnUse">
<stop stop-color="#0AE47C"/>
<stop offset="1" stop-color="#FD960B"/>
</linearGradient>
</defs>
</svg>
